<svg xmlns="http://www.w3.org/2000/svg" xmlns:xlink="http://www.w3.org/1999/xlink" width="500" zoomAndPan="magnify" viewBox="0 0 375 374.999991" height="500" preserveAspectRatio="xMidYMid meet" version="1.0"><defs><g/></defs><rect x="-37.5" width="450" fill="#ffffff" y="-37.499999" height="449.999989" fill-opacity="1"/><rect x="-37.5" width="450" fill="#ffffff" y="-37.499999" height="449.999989" fill-opacity="1"/><g fill="#134b70" fill-opacity="1"><g transform="translate(3.534516, 239.358648)"><g><path d="M 87.859375 0 L 51.15625 0 L 51.15625 -43.625 C 51.15625 -45.976562 50.566406 -47.742188 49.390625 -48.921875 C 48.210938 -50.097656 46.828125 -50.6875 45.234375 -50.6875 C 43.648438 -50.6875 42.269531 -50.125 41.09375 -49 C 39.914062 -47.875 39.328125 -46.132812 39.328125 -43.78125 L 39.328125 0 L 1.53125 0 L 1.53125 -45.3125 C 1.53125 -53.40625 2.785156 -60.21875 5.296875 -65.75 C 7.804688 -71.28125 11.1875 -75.734375 15.4375 -79.109375 C 19.6875 -82.484375 24.394531 -84.9375 29.5625 -86.46875 C 34.738281 -88.007812 39.988281 -88.78125 45.3125 -88.78125 C 49.613281 -88.78125 53.863281 -88.035156 58.0625 -86.546875 C 62.257812 -85.066406 66.097656 -82.585938 69.578125 -79.109375 C 72.554688 -82.390625 76.21875 -84.796875 80.5625 -86.328125 C 84.914062 -87.859375 89.191406 -88.675781 93.390625 -88.78125 C 98.816406 -88.78125 104.140625 -87.988281 109.359375 -86.40625 C 114.585938 -84.820312 119.328125 -82.3125 123.578125 -78.875 C 127.828125 -75.445312 131.234375 -70.96875 133.796875 -65.4375 C 136.359375 -59.90625 137.640625 -53.195312 137.640625 -45.3125 L 137.640625 0 L 99.84375 0 L 99.84375 -43.78125 C 99.84375 -46.132812 99.226562 -47.875 98 -49 C 96.769531 -50.125 95.382812 -50.6875 93.84375 -50.6875 C 92.3125 -50.6875 90.929688 -50.097656 89.703125 -48.921875 C 88.472656 -47.742188 87.859375 -45.976562 87.859375 -43.625 Z M 87.859375 0 "/></g></g></g><path stroke-linecap="butt" transform="matrix(0.942493, 0, 0, 0.942493, 90.604297, 93.936555)" fill="none" stroke-linejoin="miter" d="M 43.411701 82.341613 C 43.411701 85.661431 44.530741 88.454887 46.772965 90.713689 C 49.031768 92.972492 51.821078 94.103966 55.145041 94.103966 C 58.311509 94.103966 60.997205 93.100974 63.197983 91.090847 C 65.419485 89.064142 66.654573 86.502784 66.907393 83.415063 L 98.94509 83.415063 C 98.849765 89.341829 97.635399 94.903872 95.297849 100.10119 C 92.981022 105.277786 89.822843 109.845126 85.823312 113.803212 C 81.82378 117.761297 77.210849 120.853163 71.976229 123.074664 C 66.762333 125.275443 61.187856 126.37376 55.26109 126.37376 C 49.255576 126.37376 43.594063 125.225708 38.28484 122.929603 C 32.992196 120.629355 28.32953 117.471176 24.292698 113.455066 C 20.255865 109.418233 17.105975 104.755567 14.847172 99.462923 C 12.609092 94.149556 11.485908 88.483899 11.485908 82.457662 C 11.485908 76.373401 12.609092 70.68702 14.847172 65.394376 C 17.105975 60.085154 20.255865 55.426632 24.292698 51.431245 C 28.32953 47.431714 32.992196 44.294258 38.28484 42.014732 C 43.594063 39.718628 49.255576 38.566432 55.26109 38.566432 C 61.187856 38.566432 66.762333 39.677182 71.976229 41.898684 C 77.210849 44.099462 81.82378 47.162316 85.823312 51.0831 C 89.822843 55.003884 92.981022 59.550501 95.297849 64.727097 C 97.635399 69.903692 98.849765 75.465735 98.94509 81.413225 L 67.023442 81.413225 C 66.770622 78.325503 65.51481 75.735133 63.256008 73.650404 C 61.013783 71.544951 58.311509 70.492224 55.145041 70.492224 C 51.821078 70.492224 49.031768 71.640276 46.772965 73.940525 C 44.530741 76.220051 43.411701 79.01765 43.411701 82.341613 Z M 43.411701 82.341613 " stroke="#201e43" stroke-width="8.900025" stroke-opacity="1" stroke-miterlimit="4"/><g fill="#508c9b" fill-opacity="1"><g transform="translate(100.529929, 210.805716)"><g><path d="M 30.984375 -39.25 C 30.984375 -36.125 32.046875 -33.5 34.171875 -31.375 C 36.296875 -29.25 38.921875 -28.1875 42.046875 -28.1875 C 45.035156 -28.1875 47.570312 -29.132812 49.65625 -31.03125 C 51.75 -32.9375 52.90625 -35.34375 53.125 -38.25 L 83.328125 -38.25 C 83.253906 -32.65625 82.113281 -27.414062 79.90625 -22.53125 C 77.707031 -17.644531 74.722656 -13.335938 70.953125 -9.609375 C 67.191406 -5.890625 62.847656 -2.984375 57.921875 -0.890625 C 53.003906 1.191406 47.753906 2.234375 42.171875 2.234375 C 36.503906 2.234375 31.171875 1.15625 26.171875 -1 C 21.171875 -3.164062 16.769531 -6.148438 12.96875 -9.953125 C 9.164062 -13.753906 6.203125 -18.148438 4.078125 -23.140625 C 1.953125 -28.140625 0.890625 -33.472656 0.890625 -39.140625 C 0.890625 -44.878906 1.953125 -50.25 4.078125 -55.25 C 6.203125 -60.25 9.164062 -64.628906 12.96875 -68.390625 C 16.769531 -72.160156 21.171875 -75.125 26.171875 -77.28125 C 31.171875 -79.445312 36.503906 -80.53125 42.171875 -80.53125 C 47.753906 -80.53125 53.003906 -79.484375 57.921875 -77.390625 C 62.847656 -75.304688 67.191406 -72.414062 70.953125 -68.71875 C 74.722656 -65.03125 77.707031 -60.742188 79.90625 -55.859375 C 82.113281 -50.984375 83.253906 -45.75 83.328125 -40.15625 L 53.234375 -40.15625 C 53.015625 -43.0625 51.84375 -45.5 49.71875 -47.46875 C 47.59375 -49.445312 45.035156 -50.4375 42.046875 -50.4375 C 38.921875 -50.4375 36.296875 -49.351562 34.171875 -47.1875 C 32.046875 -45.03125 30.984375 -42.382812 30.984375 -39.25 Z M 30.984375 -39.25 "/></g></g></g><path stroke-linecap="butt" transform="matrix(0.942493, 0, 0, 0.942493, 139.941646, 125.325827)" fill="none" stroke-linejoin="miter" d="M 51.832015 55.428068 C 56.565139 55.428068 60.987418 56.315011 65.098854 58.093041 C 69.214434 59.871071 72.853386 62.324669 76.019854 65.453836 C 79.190467 68.562281 81.660644 72.192943 83.438674 76.345824 C 85.212559 80.498706 86.103647 84.949998 86.103647 89.6997 L 86.103647 124.000344 L 57.626154 124.000344 L 57.626154 89.6997 C 57.626154 88.116466 57.054201 86.736317 55.914438 85.555108 C 54.77882 84.361466 53.415249 83.7605 51.832015 83.7605 C 50.170033 83.7605 48.760872 84.361466 47.600386 85.555108 C 46.460623 86.736317 45.892814 88.116466 45.892814 89.6997 C 45.892814 91.282934 46.460623 92.675517 47.600386 93.873304 C 48.760872 95.050369 50.170033 95.638901 51.832015 95.638901 L 55.972462 95.638901 L 55.972462 124.000344 L 51.832015 124.000344 C 47.082312 124.000344 42.63102 123.113402 38.478139 121.335372 C 34.325258 119.557342 30.682161 117.087165 27.552994 113.916552 C 24.427972 110.750083 21.974373 107.111132 20.196343 102.995552 C 18.418313 98.884116 17.53137 94.449403 17.53137 89.6997 C 17.53137 84.949998 18.418313 80.498706 20.196343 76.345824 C 21.974373 72.192943 24.427972 68.562281 27.552994 65.453836 C 30.682161 62.324669 34.325258 59.871071 38.478139 58.093041 C 42.63102 56.315011 47.082312 55.428068 51.832015 55.428068 Z M 51.832015 55.428068 " stroke="#201e43" stroke-width="8.900025" stroke-opacity="1" stroke-miterlimit="4"/><g fill="#508c9b" fill-opacity="1"><g transform="translate(155.34552, 242.194988)"><g><path d="M 33.4375 -64.640625 C 37.914062 -64.640625 42.09375 -63.800781 45.96875 -62.125 C 49.84375 -60.445312 53.269531 -58.132812 56.25 -55.1875 C 59.238281 -52.25 61.570312 -48.820312 63.25 -44.90625 C 64.925781 -40.988281 65.765625 -36.796875 65.765625 -32.328125 L 65.765625 0 L 38.921875 0 L 38.921875 -32.328125 C 38.921875 -33.816406 38.378906 -35.117188 37.296875 -36.234375 C 36.210938 -37.359375 34.925781 -37.921875 33.4375 -37.921875 C 31.875 -37.921875 30.550781 -37.359375 29.46875 -36.234375 C 28.382812 -35.117188 27.84375 -33.816406 27.84375 -32.328125 C 27.84375 -30.835938 28.382812 -29.53125 29.46875 -28.40625 C 30.550781 -27.289062 31.875 -26.734375 33.4375 -26.734375 L 37.359375 -26.734375 L 37.359375 0 L 33.4375 0 C 28.96875 0 24.773438 -0.835938 20.859375 -2.515625 C 16.941406 -4.191406 13.507812 -6.519531 10.5625 -9.5 C 7.625 -12.488281 5.316406 -15.921875 3.640625 -19.796875 C 1.960938 -23.671875 1.125 -27.847656 1.125 -32.328125 C 1.125 -36.796875 1.960938 -40.988281 3.640625 -44.90625 C 5.316406 -48.820312 7.625 -52.25 10.5625 -55.1875 C 13.507812 -58.132812 16.941406 -60.445312 20.859375 -62.125 C 24.773438 -63.800781 28.96875 -64.640625 33.4375 -64.640625 Z M 33.4375 -64.640625 "/></g></g></g><g fill="#134b70" fill-opacity="1"><g transform="translate(222.597801, 242.194988)"><g><path d="M 1.234375 0 L 1.234375 -78.296875 L 33.328125 -78.296875 C 41.160156 -78.296875 47.703125 -77.492188 52.953125 -75.890625 C 58.210938 -74.285156 62.40625 -72.066406 65.53125 -69.234375 C 68.664062 -66.398438 70.90625 -63.132812 72.25 -59.4375 C 73.59375 -55.75 74.226562 -51.851562 74.15625 -47.75 C 74.15625 -45.070312 73.707031 -42.410156 72.8125 -39.765625 C 71.914062 -37.117188 70.550781 -34.769531 68.71875 -32.71875 C 66.894531 -30.664062 64.53125 -29.15625 61.625 -28.1875 L 76.953125 0 L 46.53125 0 L 32.328125 -29.640625 L 32.328125 -40.375 L 38.8125 -40.375 C 40.96875 -40.375 42.550781 -40.953125 43.5625 -42.109375 C 44.570312 -43.265625 45.078125 -44.515625 45.078125 -45.859375 C 45.078125 -47.273438 44.570312 -48.539062 43.5625 -49.65625 C 42.550781 -50.78125 40.96875 -51.34375 38.8125 -51.34375 L 30.3125 -51.34375 L 30.3125 0 Z M 1.234375 0 "/></g></g></g><g fill="#134b70" fill-opacity="1"><g transform="translate(187.572146, 168.041285)"><g><path d="M 7.890625 1.546875 L 1.390625 0.265625 L 4.453125 -15.453125 L 10.6875 -14.234375 C 12.601562 -13.859375 13.910156 -13.164062 14.609375 -12.15625 C 15.128906 -11.382812 15.28125 -10.4375 15.0625 -9.3125 C 14.882812 -8.40625 14.53125 -7.675781 14 -7.125 C 13.476562 -6.582031 12.820312 -6.285156 12.03125 -6.234375 C 13.03125 -5.867188 13.734375 -5.316406 14.140625 -4.578125 C 14.546875 -3.835938 14.648438 -2.953125 14.453125 -1.921875 C 14.304688 -1.171875 14.046875 -0.539062 13.671875 -0.03125 C 13.296875 0.476562 12.875 0.863281 12.40625 1.125 C 11.875 1.414062 11.3125 1.59375 10.71875 1.65625 C 10.132812 1.726562 9.59375 1.738281 9.09375 1.6875 C 8.59375 1.644531 8.191406 1.597656 7.890625 1.546875 Z M 6.921875 -12.203125 L 6.171875 -8.328125 L 9.234375 -7.734375 C 9.992188 -7.585938 10.601562 -7.644531 11.0625 -7.90625 C 11.519531 -8.164062 11.8125 -8.613281 11.9375 -9.25 C 12.0625 -9.863281 11.96875 -10.351562 11.65625 -10.71875 C 11.300781 -11.164062 10.585938 -11.492188 9.515625 -11.703125 Z M 5.703125 -5.921875 L 4.890625 -1.796875 L 8.046875 -1.1875 C 8.441406 -1.113281 8.878906 -1.066406 9.359375 -1.046875 C 9.847656 -1.023438 10.273438 -1.117188 10.640625 -1.328125 C 10.867188 -1.441406 11.050781 -1.613281 11.1875 -1.84375 C 11.320312 -2.070312 11.425781 -2.367188 11.5 -2.734375 C 11.625 -3.359375 11.570312 -3.832031 11.34375 -4.15625 C 11.113281 -4.488281 10.796875 -4.734375 10.390625 -4.890625 C 9.992188 -5.046875 9.59375 -5.164062 9.1875 -5.25 Z M 5.703125 -5.921875 "/></g></g></g><g fill="#134b70" fill-opacity="1"><g transform="translate(204.549465, 171.816637)"><g><path d="M 5.140625 3.28125 L 1.203125 0.765625 L 9.8125 -12.734375 L 13.75 -10.21875 C 16.03125 -8.769531 17.40625 -7.070312 17.875 -5.125 C 18.34375 -3.1875 17.882812 -1.132812 16.5 1.03125 C 15.125 3.195312 13.453125 4.472656 11.484375 4.859375 C 9.523438 5.253906 7.410156 4.726562 5.140625 3.28125 Z M 10.90625 -8.84375 L 5.203125 0.109375 L 6.546875 0.96875 C 7.441406 1.539062 8.320312 1.90625 9.1875 2.0625 C 10.050781 2.21875 10.878906 2.085938 11.671875 1.671875 C 12.472656 1.253906 13.226562 0.492188 13.9375 -0.609375 C 14.613281 -1.660156 14.972656 -2.632812 15.015625 -3.53125 C 15.054688 -4.425781 14.835938 -5.242188 14.359375 -5.984375 C 13.878906 -6.734375 13.179688 -7.398438 12.265625 -7.984375 Z M 10.90625 -8.84375 "/></g></g></g><g fill="#134b70" fill-opacity="1"><g transform="translate(298.825712, 242.194988)"><g><path d="M 30.203125 -52.34375 L 30.203125 -50.328125 L 67.4375 -50.328125 L 67.4375 -27.96875 L 30.203125 -27.96875 L 30.203125 -25.953125 L 67.4375 -25.953125 L 67.4375 0 L 1.125 0 L 1.125 -78.296875 L 67.4375 -78.296875 L 67.4375 -52.34375 Z M 30.203125 -52.34375 "/></g></g></g></svg>