<svg xmlns="http://www.w3.org/2000/svg" xmlns:xlink="http://www.w3.org/1999/xlink" width="500" zoomAndPan="magnify" viewBox="0 0 375 149.999998" height="200" preserveAspectRatio="xMidYMid meet" version="1.0"><defs><g/></defs><g fill="#134b70" fill-opacity="1"><g transform="translate(4.34584, 126.021523)"><g><path d="M 86.453125 0 L 50.328125 0 L 50.328125 -42.921875 C 50.328125 -45.242188 49.75 -46.984375 48.59375 -48.140625 C 47.4375 -49.296875 46.078125 -49.875 44.515625 -49.875 C 42.953125 -49.875 41.585938 -49.316406 40.421875 -48.203125 C 39.265625 -47.097656 38.6875 -45.390625 38.6875 -43.078125 L 38.6875 0 L 1.515625 0 L 1.515625 -44.59375 C 1.515625 -52.550781 2.75 -59.25 5.21875 -64.6875 C 7.6875 -70.125 11.007812 -74.503906 15.1875 -77.828125 C 19.375 -81.160156 24.007812 -83.582031 29.09375 -85.09375 C 34.1875 -86.601562 39.351562 -87.359375 44.59375 -87.359375 C 48.820312 -87.359375 53 -86.625 57.125 -85.15625 C 61.257812 -83.695312 65.039062 -81.257812 68.46875 -77.84375 C 71.382812 -81.0625 74.984375 -83.425781 79.265625 -84.9375 C 83.554688 -86.445312 87.765625 -87.253906 91.890625 -87.359375 C 97.234375 -87.359375 102.472656 -86.578125 107.609375 -85.015625 C 112.753906 -83.453125 117.414062 -80.984375 121.59375 -77.609375 C 125.769531 -74.234375 129.117188 -69.820312 131.640625 -64.375 C 134.160156 -58.9375 135.421875 -52.34375 135.421875 -44.59375 L 135.421875 0 L 98.234375 0 L 98.234375 -43.078125 C 98.234375 -45.390625 97.628906 -47.097656 96.421875 -48.203125 C 95.210938 -49.316406 93.851562 -49.875 92.34375 -49.875 C 90.832031 -49.875 89.472656 -49.296875 88.265625 -48.140625 C 87.054688 -46.984375 86.453125 -45.242188 86.453125 -42.921875 Z M 86.453125 0 "/></g></g></g><path stroke-linecap="butt" transform="matrix(0.927279, 0, 0, 0.927279, 90.01009, -17.053083)" fill="none" stroke-linejoin="miter" d="M 43.412535 82.34184 C 43.412535 85.661364 44.533085 88.454314 46.774185 90.712264 C 49.032135 92.974427 51.820872 94.103402 55.144609 94.103402 C 58.312479 94.103402 60.995902 93.100805 63.199088 91.091397 C 65.419125 89.060927 66.653415 86.503883 66.906171 83.411839 L 98.947159 83.411839 C 98.850269 89.343171 97.632829 94.903795 95.29484 100.097923 C 92.977913 105.275201 89.822681 109.841652 85.824929 113.80149 C 81.827178 117.761329 77.210175 120.853372 71.978133 123.073409 C 66.762942 125.276596 61.189681 126.376083 55.262561 126.376083 C 49.255403 126.376083 43.593677 125.226045 38.285809 122.930181 C 32.990578 120.630105 28.327237 117.47066 24.291572 113.456058 C 20.255907 109.420393 17.1091 104.752839 14.846937 99.461821 C 12.605837 94.149741 11.485287 88.483802 11.485287 82.45558 C 11.485287 76.372595 12.605837 70.685593 14.846937 65.394576 C 17.1091 60.082495 20.255907 55.427579 24.291572 51.429827 C 28.327237 47.432076 32.990578 44.293694 38.285809 42.01468 C 43.593677 39.718817 49.255403 38.568779 55.262561 38.568779 C 61.189681 38.568779 66.762942 39.676691 71.978133 41.90094 C 77.210175 44.099914 81.827178 47.16247 85.824929 51.084395 C 89.822681 55.002107 92.977913 59.551708 95.29484 64.728986 C 97.632829 69.902051 98.850269 75.466887 98.947159 81.41507 L 67.024123 81.41507 C 66.771368 78.323026 65.516015 75.736493 63.258064 73.651259 C 61.016965 71.544962 58.312479 70.491814 55.144609 70.491814 C 51.820872 70.491814 49.032135 71.641852 46.774185 73.941928 C 44.533085 76.220942 43.412535 79.018104 43.412535 82.34184 Z M 43.412535 82.34184 " stroke="#201e43" stroke-width="8.900025" stroke-opacity="1" stroke-miterlimit="4"/><g fill="#508c9b" fill-opacity="1"><g transform="translate(99.775498, 97.929521)"><g><path d="M 30.484375 -38.625 C 30.484375 -35.539062 31.523438 -32.953125 33.609375 -30.859375 C 35.703125 -28.773438 38.289062 -27.734375 41.375 -27.734375 C 44.300781 -27.734375 46.789062 -28.664062 48.84375 -30.53125 C 50.90625 -32.40625 52.046875 -34.769531 52.265625 -37.625 L 81.96875 -37.625 C 81.894531 -32.125 80.773438 -26.972656 78.609375 -22.171875 C 76.453125 -17.367188 73.519531 -13.132812 69.8125 -9.46875 C 66.113281 -5.800781 61.84375 -2.9375 57 -0.875 C 52.15625 1.175781 46.984375 2.203125 41.484375 2.203125 C 35.910156 2.203125 30.664062 1.140625 25.75 -0.984375 C 20.832031 -3.117188 16.503906 -6.054688 12.765625 -9.796875 C 9.023438 -13.535156 6.109375 -17.863281 4.015625 -22.78125 C 1.921875 -27.695312 0.875 -32.941406 0.875 -38.515625 C 0.875 -44.160156 1.921875 -49.441406 4.015625 -54.359375 C 6.109375 -59.273438 9.023438 -63.582031 12.765625 -67.28125 C 16.503906 -70.988281 20.832031 -73.90625 25.75 -76.03125 C 30.664062 -78.15625 35.910156 -79.21875 41.484375 -79.21875 C 46.984375 -79.21875 52.15625 -78.191406 57 -76.140625 C 61.84375 -74.085938 66.113281 -71.242188 69.8125 -67.609375 C 73.519531 -63.984375 76.453125 -59.765625 78.609375 -54.953125 C 80.773438 -50.148438 81.894531 -45 81.96875 -39.5 L 52.375 -39.5 C 52.15625 -42.363281 51 -44.765625 48.90625 -46.703125 C 46.8125 -48.648438 44.300781 -49.625 41.375 -49.625 C 38.289062 -49.625 35.703125 -48.5625 33.609375 -46.4375 C 31.523438 -44.3125 30.484375 -41.707031 30.484375 -38.625 Z M 30.484375 -38.625 "/></g></g></g><path stroke-linecap="butt" transform="matrix(0.927279, 0, 0, 0.927279, 138.551011, 13.829479)" fill="none" stroke-linejoin="miter" d="M 51.831506 55.427848 C 56.562249 55.427848 60.985472 56.316705 65.101176 58.09442 C 69.212668 59.872134 72.852349 62.323864 76.020219 65.453821 C 79.18809 68.562715 81.660882 72.193971 83.438597 76.343376 C 85.216311 80.496993 86.100956 84.949705 86.100956 89.701511 L 86.100956 124.000449 L 57.623822 124.000449 L 57.623822 89.701511 C 57.623822 88.117575 57.055122 86.735845 55.917722 85.556318 C 54.776109 84.359942 53.415441 83.761754 51.831506 83.761754 C 50.171744 83.761754 48.760525 84.359942 47.602062 85.556318 C 46.464661 86.735845 45.891749 88.117575 45.891749 89.701511 C 45.891749 91.285446 46.464661 92.675602 47.602062 93.871979 C 48.760525 95.051505 50.171744 95.637055 51.831506 95.637055 L 55.972485 95.637055 L 55.972485 124.000449 L 51.831506 124.000449 C 47.0797 124.000449 42.626988 123.111592 38.477584 121.333877 C 34.323966 119.556163 30.684285 117.087583 27.554328 113.919712 C 24.424371 110.751842 21.972641 107.112161 20.194927 102.996457 C 18.421425 98.884965 17.532567 94.449104 17.532567 89.701511 C 17.532567 84.949705 18.421425 80.496993 20.194927 76.343376 C 21.972641 72.193971 24.424371 68.562715 27.554328 65.453821 C 30.684285 62.323864 34.323966 59.872134 38.477584 58.09442 C 42.626988 56.316705 47.0797 55.427848 51.831506 55.427848 Z M 51.831506 55.427848 " stroke="#201e43" stroke-width="8.900025" stroke-opacity="1" stroke-miterlimit="4"/><g fill="#508c9b" fill-opacity="1"><g transform="translate(153.706228, 128.812084)"><g><path d="M 32.90625 -63.59375 C 37.300781 -63.59375 41.40625 -62.765625 45.21875 -61.109375 C 49.03125 -59.460938 52.40625 -57.191406 55.34375 -54.296875 C 58.28125 -51.398438 60.570312 -48.023438 62.21875 -44.171875 C 63.875 -40.328125 64.703125 -36.203125 64.703125 -31.796875 L 64.703125 0 L 38.296875 0 L 38.296875 -31.796875 C 38.296875 -33.265625 37.757812 -34.546875 36.6875 -35.640625 C 35.625 -36.742188 34.363281 -37.296875 32.90625 -37.296875 C 31.363281 -37.296875 30.054688 -36.742188 28.984375 -35.640625 C 27.921875 -34.546875 27.390625 -33.265625 27.390625 -31.796875 C 27.390625 -30.328125 27.921875 -29.039062 28.984375 -27.9375 C 30.054688 -26.84375 31.363281 -26.296875 32.90625 -26.296875 L 36.75 -26.296875 L 36.75 0 L 32.90625 0 C 28.5 0 24.367188 -0.820312 20.515625 -2.46875 C 16.671875 -4.125 13.296875 -6.414062 10.390625 -9.34375 C 7.492188 -12.28125 5.21875 -15.65625 3.5625 -19.46875 C 1.914062 -23.289062 1.09375 -27.398438 1.09375 -31.796875 C 1.09375 -36.203125 1.914062 -40.328125 3.5625 -44.171875 C 5.21875 -48.023438 7.492188 -51.398438 10.390625 -54.296875 C 13.296875 -57.191406 16.671875 -59.460938 20.515625 -61.109375 C 24.367188 -62.765625 28.5 -63.59375 32.90625 -63.59375 Z M 32.90625 -63.59375 "/></g></g></g><g fill="#134b70" fill-opacity="1"><g transform="translate(223.700668, 131.790951)"><g><path d="M 1.203125 0 L 1.203125 -77.015625 L 32.796875 -77.015625 C 40.492188 -77.015625 46.925781 -76.226562 52.09375 -74.65625 C 57.269531 -73.082031 61.394531 -70.898438 64.46875 -68.109375 C 67.550781 -65.316406 69.753906 -62.101562 71.078125 -58.46875 C 72.398438 -54.84375 73.023438 -51.015625 72.953125 -46.984375 C 72.953125 -44.335938 72.507812 -41.710938 71.625 -39.109375 C 70.75 -36.503906 69.410156 -34.191406 67.609375 -32.171875 C 65.816406 -30.160156 63.488281 -28.679688 60.625 -27.734375 L 75.703125 0 L 45.765625 0 L 31.796875 -29.15625 L 31.796875 -39.71875 L 38.1875 -39.71875 C 40.3125 -39.71875 41.867188 -40.285156 42.859375 -41.421875 C 43.847656 -42.554688 44.34375 -43.785156 44.34375 -45.109375 C 44.34375 -46.503906 43.847656 -47.75 42.859375 -48.84375 C 41.867188 -49.945312 40.3125 -50.5 38.1875 -50.5 L 29.8125 -50.5 L 29.8125 0 Z M 1.203125 0 "/></g></g></g><g fill="#134b70" fill-opacity="1"><g transform="translate(185.412634, 55.855517)"><g><path d="M 7.765625 1.515625 L 1.375 0.265625 L 4.390625 -15.203125 L 10.515625 -14 C 12.410156 -13.632812 13.691406 -12.953125 14.359375 -11.953125 C 14.878906 -11.191406 15.03125 -10.253906 14.8125 -9.140625 C 14.632812 -8.265625 14.285156 -7.554688 13.765625 -7.015625 C 13.242188 -6.472656 12.601562 -6.175781 11.84375 -6.125 C 12.8125 -5.757812 13.5 -5.210938 13.90625 -4.484375 C 14.3125 -3.765625 14.414062 -2.90625 14.21875 -1.90625 C 14.070312 -1.164062 13.8125 -0.539062 13.4375 -0.03125 C 13.0625 0.476562 12.648438 0.859375 12.203125 1.109375 C 11.671875 1.390625 11.113281 1.5625 10.53125 1.625 C 9.957031 1.695312 9.425781 1.707031 8.9375 1.65625 C 8.445312 1.613281 8.054688 1.566406 7.765625 1.515625 Z M 6.796875 -12.015625 L 6.0625 -8.203125 L 9.078125 -7.625 C 9.828125 -7.476562 10.425781 -7.53125 10.875 -7.78125 C 11.332031 -8.03125 11.625 -8.46875 11.75 -9.09375 C 11.863281 -9.707031 11.765625 -10.1875 11.453125 -10.53125 C 11.109375 -10.988281 10.410156 -11.316406 9.359375 -11.515625 Z M 5.59375 -5.828125 L 4.8125 -1.78125 L 7.921875 -1.1875 C 8.304688 -1.101562 8.734375 -1.050781 9.203125 -1.03125 C 9.679688 -1.007812 10.097656 -1.097656 10.453125 -1.296875 C 10.679688 -1.421875 10.863281 -1.59375 11 -1.8125 C 11.132812 -2.03125 11.238281 -2.320312 11.3125 -2.6875 C 11.425781 -3.300781 11.367188 -3.769531 11.140625 -4.09375 C 10.921875 -4.414062 10.613281 -4.65625 10.21875 -4.8125 C 9.820312 -4.96875 9.425781 -5.085938 9.03125 -5.171875 Z M 5.59375 -5.828125 "/></g></g></g><g fill="#134b70" fill-opacity="1"><g transform="translate(202.1159, 59.569937)"><g><path d="M 5.046875 3.21875 L 1.1875 0.75 L 9.65625 -12.546875 L 13.515625 -10.078125 C 15.773438 -8.640625 17.128906 -6.96875 17.578125 -5.0625 C 18.035156 -3.15625 17.585938 -1.132812 16.234375 1 C 14.878906 3.125 13.238281 4.378906 11.3125 4.765625 C 9.382812 5.160156 7.296875 4.644531 5.046875 3.21875 Z M 10.71875 -8.703125 L 5.125 0.09375 L 6.453125 0.953125 C 7.335938 1.503906 8.203125 1.859375 9.046875 2.015625 C 9.898438 2.171875 10.71875 2.046875 11.5 1.640625 C 12.28125 1.242188 13.019531 0.5 13.71875 -0.59375 C 14.375 -1.625 14.722656 -2.578125 14.765625 -3.453125 C 14.804688 -4.335938 14.585938 -5.144531 14.109375 -5.875 C 13.640625 -6.613281 12.957031 -7.269531 12.0625 -7.84375 Z M 10.71875 -8.703125 "/></g></g></g><g fill="#134b70" fill-opacity="1"><g transform="translate(302.39555, 131.790951)"><g><path d="M 29.703125 -51.5 L 29.703125 -49.515625 L 66.34375 -49.515625 L 66.34375 -27.515625 L 29.703125 -27.515625 L 29.703125 -25.53125 L 66.34375 -25.53125 L 66.34375 0 L 1.09375 0 L 1.09375 -77.015625 L 66.34375 -77.015625 L 66.34375 -51.5 Z M 29.703125 -51.5 "/></g></g></g></svg>